<?xml version="1.0" standalone="no"?>
<!DOCTYPE svg PUBLIC "-//W3C//DTD SVG 20010904//EN"
 "http://www.w3.org/TR/2001/REC-SVG-20010904/DTD/svg10.dtd">
<svg version="1.0" xmlns="http://www.w3.org/2000/svg"
 width="432.000000pt" height="222.000000pt" viewBox="0 0 432.000000 222.000000"
 preserveAspectRatio="xMidYMid meet">
<metadata>
Created by potrace 1.16, written by Peter Selinger 2001-2019
</metadata>
<g transform="translate(0.000000,222.000000) scale(0.100000,-0.100000)"
fill="#000000" stroke="none">
<path d="M160 1135 l0 -955 393 0 c512 0 613 11 767 83 119 56 216 180 255
327 20 73 19 213 -1 281 -42 142 -150 255 -296 308 -34 13 -35 24 -5 38 56 26
147 125 184 201 37 74 38 79 37 181 0 127 -21 189 -92 284 -85 112 -208 173
-393 197 -46 5 -256 10 -466 10 l-383 0 0 -955z m885 712 c100 -28 149 -68
185 -150 47 -107 32 -231 -37 -308 -80 -88 -135 -99 -498 -99 l-285 0 0 291 0
292 293 -6 c210 -4 306 -9 342 -20z m76 -815 c162 -53 248 -213 205 -380 -30
-117 -94 -184 -216 -224 -59 -19 -93 -21 -382 -26 l-318 -4 0 332 0 332 323
-4 c297 -4 327 -6 388 -26z"/>
<path d="M1780 2079 c0 -12 69 -281 115 -449 12 -47 44 -166 70 -265 26 -99
64 -243 85 -320 21 -77 59 -221 85 -320 52 -196 133 -499 141 -528 5 -16 18
-17 132 -15 124 3 126 3 133 28 11 37 114 408 219 785 125 450 205 742 216
789 5 22 14 41 19 43 6 2 46 -126 89 -284 44 -159 85 -308 92 -333 7 -25 56
-202 109 -395 53 -192 112 -406 131 -475 19 -69 37 -133 40 -142 5 -16 20 -18
124 -18 l119 0 15 52 c8 29 34 121 56 203 23 83 131 476 240 875 109 399 202
738 205 753 l7 28 -123 -3 -122 -3 -13 -40 c-7 -22 -33 -125 -58 -230 -43
-181 -129 -533 -236 -970 -27 -110 -57 -239 -67 -287 -9 -49 -21 -88 -24 -88
-4 0 -10 19 -14 42 -44 271 -81 413 -354 1373 l-58 200 -146 3 c-131 2 -147 1
-155 -15 -5 -10 -28 -83 -50 -163 -22 -80 -66 -235 -97 -345 -31 -110 -94
-333 -140 -495 -46 -162 -100 -364 -120 -447 -20 -84 -40 -153 -44 -153 -4 0
-15 44 -25 98 -15 80 -101 459 -207 912 -28 123 -65 281 -89 385 -11 50 -28
120 -37 158 l-16 67 -123 0 c-86 0 -124 -3 -124 -11z"/>
</g>
</svg>
