<?xml version="1.0"?>
<svg version="1.1" xmlns="http://www.w3.org/2000/svg" width="70" height="40" style=""><path fill="#7510f7" d="M29.392,26.804q1.092-0.532,1.792-1.764q0.7-1.176,0.7-2.52q0-2.408-1.624-3.892q-1.624-1.456-4.088-1.456l-7.868,0l-0.336,0l-1.428,0l0,19.628l1.428,0l0.336,0l7.868,0q2.464,0,4.088-1.456q1.624-1.484,1.624-3.892q0-1.316-0.686-2.562t-1.806-2.086z M18.304,18.6l7.868,0q1.68,0,2.772,1.148q1.176,1.232,1.176,2.772q0,1.26-0.924,2.324q-0.868,0.952-2.296,1.26l-0.728,0l-7.868,0l0-7.504z M26.172,35.372l-7.868,0l0-7.504l7.868,0l0.728,0q1.428,0.308,2.296,1.26q0.924,1.064,0.924,2.324q0,1.512-1.176,2.744q-1.12,1.176-2.772,1.176z M65.50752,17.2l-1.764,0l0,11.9q0,2.352-1.792,4.144t-4.144,1.792t-4.144-1.792t-1.792-4.144l0-11.9l-1.764,0l0,11.9q0,2.352-1.792,4.144q-1.848,1.792-4.172,1.792q-2.352,0-4.144-1.792t-1.792-4.144l0-11.9l-1.764,0l0,11.9q0,3.108,2.296,5.404t5.404,2.296q2.128,0,4.004-1.176q1.848-1.148,2.66-2.996q1.008,1.792,2.968,2.996q1.904,1.176,4.032,1.176q3.136,0,5.432-2.296q2.268-2.268,2.268-5.404l0-11.9z"/><path fill="#" d=""/></svg>
